<?xml version="1.0" standalone="no"?>
<!DOCTYPE svg PUBLIC "-//W3C//DTD SVG 20010904//EN"
 "http://www.w3.org/TR/2001/REC-SVG-20010904/DTD/svg10.dtd">
<svg version="1.0" xmlns="http://www.w3.org/2000/svg"
 width="233.000000pt" height="226.000000pt" viewBox="0 0 233.000000 226.000000"
 preserveAspectRatio="xMidYMid meet">

<g transform="translate(0.000000,226.000000) scale(0.100000,-0.100000)"
fill="#000000" stroke="none">
<path d="M990 2145 c-430 -78 -764 -408 -846 -835 -31 -157 -15 -369 38 -525
104 -305 361 -555 673 -656 409 -133 880 19 1138 366 159 214 226 451 205 725
-29 375 -298 730 -659 870 -168 65 -378 86 -549 55z m356 -91 c251 -44 478
-196 619 -413 59 -92 90 -162 123 -281 24 -84 27 -112 26 -245 -1 -121 -5
-165 -22 -229 -126 -461 -538 -752 -1011 -715 -402 33 -734 316 -842 719 -32
119 -33 348 -1 462 92 336 337 590 657 683 153 44 280 49 451 19z"/>
<path d="M972 1782 c-57 -79 -66 -212 -22 -306 37 -76 41 -77 123 -4 39 35 77
68 84 71 7 5 45 -22 93 -64 90 -80 93 -80 131 -1 18 38 23 64 23 132 0 68 -5
94 -23 132 -37 76 -43 77 -107 22 -31 -27 -69 -59 -84 -72 l-29 -22 -75 70
c-42 38 -80 70 -85 70 -5 0 -19 -12 -29 -28z"/>
<path d="M479 1473 c24 -40 129 -202 377 -580 143 -219 269 -413 279 -431 11
-17 24 -32 30 -32 5 1 164 238 353 528 l342 527 -197 3 c-108 1 -200 -1 -203
-5 -4 -5 -72 -242 -151 -527 -79 -286 -145 -513 -147 -505 -2 8 -67 244 -146
524 l-142 510 -203 3 c-191 2 -201 1 -192 -15z"/>
<path d="M1120 1365 l0 -45 45 0 45 0 0 45 0 45 -45 0 -45 0 0 -45z"/>
<path d="M1120 1205 l0 -45 45 0 45 0 0 45 0 45 -45 0 -45 0 0 -45z"/>
<path d="M1127 1084 c-4 -4 -7 -25 -7 -46 l0 -38 46 0 45 0 -3 43 c-3 40 -4
42 -38 45 -20 2 -39 0 -43 -4z"/>
</g>
</svg>
